<mxfile host="app.diagrams.net" modified="2023-10-19T06:32:22.115Z" agent="Mozilla/5.0 (Windows NT 10.0; Win64; x64) AppleWebKit/537.36 (KHTML, like Gecko) Chrome/118.0.0.0 Safari/537.36" etag="1JqiRC4RnkXk1zDwnH15" version="22.0.4" type="github">
  <diagram name="Сторінка-1" id="gphxX4UrNnw288K2fqSL">
    <mxGraphModel dx="1301" dy="789" grid="1" gridSize="10" guides="1" tooltips="1" connect="1" arrows="1" fold="1" page="1" pageScale="1" pageWidth="827" pageHeight="1169" math="0" shadow="0">
      <root>
        <mxCell id="0" />
        <mxCell id="1" parent="0" />
        <mxCell id="WpXwGcvxJ_HcZTfZ3stz-1" value="" style="shape=image;verticalLabelPosition=bottom;labelBackgroundColor=default;verticalAlign=top;aspect=fixed;imageAspect=0;image=data:image/png,iVBORw0KGgoAAAANSUhEUgAAALsAAAFaCAYAAABG/yz5AAAAAXNSR0IArs4c6QAAAARnQU1BAACxjwv8YQUAAAAJcEhZcwAADsMAAA7DAcdvqGQAAFlzSURBVHhe7Z0FXBTbF8d/u7CEopSN2GJ3oFgYGOjD7g6s9+zup0+MZzz/9rPlKeYzMDAxwcBWjKeCoKioIM0Cu3v+c4dBkUaXXZD5+hmXOTtxZ/Y3d869c+ccCXFARCQXIBU+RUR+ekSxi+QaRLGL5BpEsYvkGkSxi+Qasn1vTFxcHGJiYvhPpVIpWEVyGlKpFLq6upDJZDA0NBSsmiVbiP3z58+4du0a7t69C39/f7x58wavX7/mPyMiIqCvr8+fJHbCRHImTGYKhQKxsbGQSCSwsLCApaUlihcvzk+VKlVCo0aNUKZMGWEN9aMVsYeHh8PV1RWXLl2Ch4cHL+p69erxU4kSJb45CQUKFBDWEvlZiIyM5H/zhIlVbA8fPuS1wO7eTPRs6tixo1rFrzGxs4M4c+YM/vnnH7i5uaFZs2Zo1aoVf1DVq1eHjo6OsKRIbsbPzw+enp64fPkyDh06hPLly2PAgAHo0aMHTExMhKW+Eyb2rITzt2nVqlVUrFgxsra2pnXr1lFQUJDwrYhI6nDtNDp27Bh1796djI2NydHRkQICAoRvM0+WiV2lUpGLiwtxtyHq0KEDPXjwQPhGRCTzBAcH0/Tp08nc3JxmzpxJoaGhwjcZJ0vE/vbtW2rcuDHVr1+fOL9csIqI/Dicf09DhgyhIkWK0NmzZwVrxlC72K9du0Zcw5KcnJz42l1EJCtglWjRokVp2bJlgiV91Cr2vXv3UqFChejEiROCRUQk6/D396c6derQwIEDM1Sxqq03hvWRt23bFu7u7qhSpYpgFRHJWuRyOd+rZ29vD86XF6wpoxaxs4dC3BUG7paCrl27CtacghL/HV+N3eef4m24EumdDIlEH2al66Hj0AGwKSw+5MoOcG1E/hnNzp07eeGnChP7jzJy5EgaO3asMJcziXu+nJoaSkin5FA6+NKP/Py+ne4vaUZ60KGSw05QiLCOSPbhwoULZGFhwXdXpsYPV01RUVHYt28fpk2bJlhyJrqWNVC5AHc6dPLA3KIE/yT361QcRYz1uaV0UKZ6DeSLX0UkG2Fra8v/VqdOnRIsyflhsbOnXNbW1ihWrJhgyamwQUrCn2nAxuiIZE8GDx6MHTt2CHPJ+WGffciQIWjQoAGGDx8uWHIoMRcxtnIrrMdonHu8GrasIv+CCh82toPlqIuw3fAabiMLfVNLKIMfwu3wWTx4p4BphSbo8EtDWBqwb6Lw8MAaHHwQDiVJoJO3FFr1qocP/x7GvdA4rn0ghb5ZffQY0wEVdLml/a7i6LGr+O+TAvlK1YN95zaoaMx28B8OL/8Ht8NT+qm4u02HyRjSIP5+k3pZlPB334Jdl94gSkmQ6OZD8cY9MKxVSQTfPYz9596hdBdH2Jf95sBzFB8/foSVlRXfhkwR3pn5Abp06UL//vuvMJeDkV+gMWV0SKfMGLogF2xfUFLghtacz65HrTcEcnMJKMj/8BhqVL83rXK7Qw+u7afZrYqRSeXB9M/zmPhFlO9p6y/GJDVsSWv8hTXDTpJjSR3SrTyJrkYyg5KCzk6hOkXr04SDXvTwxj4aW8eIjGrPJk9Wlk9bqEfTCXTQ6wm9eLSS7PR0qdyIw/T02QNyX9OL7Gde5xbKQFkojp4tsSGZ1IQ674w/jriHS6iJuQHJJLpUedp1SlgyJ8K6H6VSqTCXnB8We+/evWn37t3CXA7mO8Su8NlA7cwtaOCRr01WZeAB6muhS0YNnOg+31aS05kRlqRboD8djuYX4RT2gH6vLSO9FmvoLb+xSNrbPT/JKk4mT15tSgpY3Zz0ZHXpD28FJ8i/afWJMPYFUfgOctDXpYpTrsULU/GUtm44mcGycHva3YXy6pahMfxBRtC5ib1p8YNoCgt4RYHJjjtnwbUfycDAQJhLzg/77GxU2p07d4S53IQCD7ZvxLnwKmjQ8GuTVVroFwz6pRiib23DVo9Y3sbGbyfr0+RM3Bfxf8MAdlM2Yu1yR9TWUyH02XkcvfmOW0WO6CiCbtXhGGOfSrNYpwKGjLTLcFnYPvl/3C8f83gLNoe2x6AqBshXrCQK5VwPhoc96ylXrpwwl5wfFnu/fv3A1ez8wPzcRQTu3X0GhUQGPf3Ep1GGqtXKQ0f5Bj4+0dy8DvKb5IMk7Dr2bjiA4677sMFpJdz8E791JYVZve5ob3QGU/v0wuTd/ihRyZL/cTLWospoWQRUQfBY2QP1mq6AqlljFPxhFWQPtm/fjv79+wtzyfnhw2Q1e9myZXHs2DHBkluQIU8eripUBcDPN/GFLuVfO5NITFCgAKsqdVF/+l4c+GsQKob7wPeTPmoP/BXtSiQevy/HvVUdYD3cC42WuGDzgqFoZpGZV9cyWhYBqTkajV+JSU1jcei3flj+UKj1czBhYWHg2o5ZK3bG3LlzMXbsWAQGBgqWnAlfi6ZSlXIu3zefgCEat2qE/MrHOHXiGb7W00oEvOXOQ+HWcGjCd4MAxlXR8deZ+H3uNIwZ0gnWxZP4C/KzWL3kPGDbBx1L6ApGDm5fXLNLmEmLTJQlAakl+i2ejqa4hiWTN+NlDn+9d+jQoejVqxeKFi0qWJKjFrG3bt2a31nPnj1zrjujCEJwKCeusGAEJTsEQlDQZ+5/QkhQkOB+S2HRfwGm2eTBnTXTsemJnLeqgq9i27/vYTdvNhxSfbFGjhi2uCIOcWxWogeZjBB4egu2XvHGraMrMfufh1CpPuLp5f34+6A3W4pHFRmFaK4Ailh+TYGMlyVWHgMFKRAXR5y7PxJLx9dE7PmFmLLLHxm5rLIjK1as4N9dXrVqlWBJBb6ZqgZYt4+9vT3/VklkJN+flkNQ0PMT/6O5fWuTiZTTsdSEavebS6uOPyXWgaH8dJ12LRlPrUvKiGvWkaxkaxq/5B+6FhjfJ6P8dI3WDmtOlcpVp+adulGXzv1pxp5HFM5/mxyF/0XaOq8LldeTkNS4Lg398zg9U8TRs13DqF7RfJS/aHXqOOcYvbi5iBqbm1D5jkvJIzh+XxEPD9GSwXXIWCohPasuNHf1XrrxIaFvKL2yKMj/wgb6tZE5SSUyKttpLm1yf0WKyOs0u44hSU1qUt8/XOm5gl84x/D333/zQ33ZCMj0UOs7qGwE2qhRo/hW8ZEjR1CqVCnhGxER9cKiFIwZMwZXr17F0aNH0+yFSUCt7XADAwO+RZzwVHXXrl2JfFwREfXAurrZC/vsiemNGzcyJHQeVrNnBeyNpYYNG1LNmjXp9OnTglVE5Pvx8fGhPn368G7Lxo0bM/0mXJaJPQE2lKBChQpka2tLXE2fw/x5EW3DBH358mUaNmwY/7L1ggULKCIiQvg2c2gkbgzroWF9oM7OznzkLxb8hj2Maty4MR/tS0QkKY8fP8bevXt5Vzhv3rx8/zkb1ViwYEFhicyjEbEn5v3799izZw9/IOyAatSoARsbGz5YEnvbhPWT8o/XRXINoaGhePDgAR8ciUUFYxVivnz5+EqRBUiqVauWsOSPoXGxJ4aFQbt58yZ/gGxivTghISEoUqTIlxB4bJx8QqxHMWpYzoXJjAWnZRNrWCaEvWOfrHJjsR4TKj02pfVw6HvRqthTgkXsDQgI+HIy2J2AdTMlRPHNZsXNNIsXL8bkyZNz3UsgLCgtO2Y2mZmZfanM2Gf+/PmFpbKWbCf2nx3mf7KaLU+ePIJFRFP8JOPdcg7sli3WL9pBFLuGEcWuPUSxaxhR7NpDFLuGYWJXqXLq+MKcjSh2DcN6JcSaXTuIYtcwohujPUSxaxhR7NpDFLuGEcWuPUSxaxixgao9RLFrGLGBqj1y5HABNmT4w4cPwlzOgo3yPHfu3A8NVRXJPPxo2pwmduYCdO/enRdMThxfknC6mTsjkrVER0fzw4fHjRvHRx7IcWIfMWIEfHx8cOLECejp6QlWEZFvYaNkO3XqBHNzcz4jB6tccpTPzoIxsZdtDx8+LApdJFXY3X/gwIHQ1dXFtm3bvtxFc4zY165dy2f4OHnyJIyMjASriEhyWIgNlmeJ6YUJPoEcIXZW6KVLl+LMmTNiw04kTebMmcOH13B1deVDuyQm2/vsrCHKXs5mn1WrVhWsaRP79AQ2H7oMb98gxApHJ5FIIdXVQ16zYihX0xbt29ugpPj+xE8Fa4Ru3LgRV65cSblSZGLPrnh5efFJhK9evSpYMoHiBS1vYkASHUvqt+sZBYZFUNj75+SxbwF1tspLBsXbkNPl4C+JBURyNlwjlEqUKJFmGLxsK/Znz57xwXCOHTsmWDJLNB0fUoSkulY04cq3yVMUL9aQnYmUdMv+Sue+LwSJSDbiyJEjvFaePn0qWFImW/rsrHHRpk0bLFq0CB06dBCsmUXCRyNIqTdbp3RHdKilC4XfBZx9lPNjk+dmLl68CEdHRz4/QIUKFQRrymQ7n52F0mjatCnvp0+dOlWwfg8xODW8LDpsz4uxFx5iZeNEXZUKL8ys1QhLntXGwgcemFkReH1xK/658JrPJMc5+JBKdZHHrBRqte4Iu0om37TkI30v4+hxD7wM1Udx6w7oZmf1JTeq0ucEVjtfR5AiyWnltikzrooOw3qijhA+OsXtKP1xfpMzLr2VQ0XcBWtUAfaO9pCe3owTT8Kh4GxSw6Jo2ncYrF5uhfOlt5CrCBIdI1Swd4S99DQ2n3iCcG7/EqkhijbtixGtSkEn9j1uux3HZe8AhEQrwLlvXJl0kKdUK8wc2iS+QEmI+eCNaxc9EViyO3pas0KrEHxrH5yvG8NhpD3KJAolrw1u376Ndu3aYf/+/Xwe1HTh6/dsAksA1bhxY5o4caJg+RHk5OZoQTpJ3RhFIF2e35zMpbpk0WMX+X1x2uPo+VIbkumUpKH7HpP3jZO0cXgdMja0IscjCUnD5OS9dSg5DFpELqfO0sFlvamyUR6yGryX/BKFeg65PosaNp1LV1+8pJcv79OfLfRIWqQ37fuUsLN0thP3hBY1lJHUrCvtSghJrfxALt0LkFRmQ0ueJWRxjqMnixqSTGpGXXd9EMqopA8u3amAVEY2S57xYbcp5iGtsitEMlMbmrTHgx7cXE2/mErJqM168k8lRLXiyVZytKtDlnmlJKs2g27EKOn9iTFUPa+EIKtBc+4mlEE7MJeFuS5Hjx4VLOmTbcTO0nD/8ssv1L9//0wHrEwZQewSPSpc1Zba/uJA7Vs0oMoWRqQjNaIKfTbTo4TsdQLxmeTK0thLwsURvos6G0kpX/e9xCJUxj1YRI3rTacbX7LKRdLJYdw+dErR6POJUs3FXKTJw9ZRAK++z7TFXp90q3DrCfpIfzuR5NI1L9emGEsXv1ynMXR1ohXp5u1CuxOFy4x06Rpf5q8LUszViWSlm5e6CAvG3ZpF1WRSKjTwKNeS4Yh2pcGFuYt9mBt3ltJCSYH7elNRmRVNdN1PU4atpOtvfOimhzcFJVy3WoA1QkuWLMk3SjNDtvHZWdJgNsAr8RMvtaBTCn02nIab61EcP3seZ486w6lnKbzdOxp27ebB/WOi4bbcfr/uWYXA8+64L8+DarUrQw8KPDqwD7dCvbFn1mQ+0NHkyXPhprJBe/taMIkIE9bjoCjE6hkjf6Kzy44pftsZ3U780snOxDdljIefT74gW5RHalkZFU2B0Cf38Twm3saTbJ2kSFHIvjtamvhg9/yrqLdgHKwtSqOeTWWYaUk5nz594jO9TJgwgQ+NlykE0WsVzjenBg0aqDnCbypuDEPpR5s7mHFXui6VHXMhvrbjYLWkkdSYqnboTz1aViZzfWOqMnAHPeVXj6Z/+5iSfsu1Qu7S1FG+30QjJrsLtWZ8zS6rOoNu8jV7RrbDanYjkhpXp45DhtLQofFTp5omJDXqSi5JanZW5uodh3xZbminmmTC3b26flmQc22u/kX96lhQ8fp9aMp8R2qYn6vZHdOr2RkfaNsv+ciw1bp0jzurCQsLozp16tCcOXMES+bQes2+cuVKHD9+nB/YpbFRjNIS6NihLmRcLet/+yYCvsnSWAAtpmzBvjOe8Ng3AiaujmjafhUexAJ6+npQ3r+Ei0mzhasiEBL6dSPyWw+gqFSF237KZHQ70gK2mLhhC7ZsYdN6TG7xbRr5L3Bltp24QVhuC9ZPboFC3ywoRcFGjhjdtgiCH9xDWPFyKJDRxmW4N/yC8yLuric8owSbFmBZXRwcHPgkFwsWLBCsmUOrYv/nn3/wv//9D6dPn+bj/2kOBQICAjlHRQqT0mVRKKV4qVJjVOg4DxPt8+PTpe044C1FLetaMAw6gt+n/ouvaUxVeHtkPv66nJBnNArX3MNRzdY8lZOrl8HtqJcQ99lwXPEEFSZsxvI+lVAgQ6Emw3F1/TmUHNcLZcK94HGPddPKERGZuHbIeliMT5YJjwW5XbNmjWDNPFoTOxvQxboWT506xQe4VD8KhIdFchJKigLv3Rdg7LqHUJo1w7Spv3zpNuQzyQl/88if4N7TcMCoNMoW1YVFn+kYWU2G59t7o751N/w6fTrG92uBthsLokub+MFpSr+92B3WEj1KJVxBSu7H4txFeRTkfGGkGdhOLOQxCpBSga89mIToKDlnUyayJWS/42yJjBTN7YuzKQWb6uMJTBu5Hn41puLvuTYwUskRFUPcOnFC5r/EqPD51n44u7+Cv6sT9pv1R/92TVAv/ytcufgf/I+vw+4H8dn4NAHnffCZGNmQ3YShut9NvDejWTw9PalgwYJ0/fp1waJeYp660cZFQ6muiZQgkZFpqWpUr2lr6uBgTy3qV6SSpauRbe9ZtOdBmLCGgt5c3ChkkstL5Zr3psGDe1OHBlWoqu1AWnougFtCWDLgLDn1rEuW+fVIL58F1e25hC68Z85sCN3cPpHsyxegSu0Gf/WfB3WimmZSksjKkMMcF7rzOZ3tKPzpwoZfqZF5/Dod57qQ16cguuUym+xL6BCkhajp2PXk7hfzTfa7Mh3nkovXJwq65UKz7UuQDqRUqOlYWr3jb5rcsijpGjehJfdjSPnOg7ZOsKXCOiCdYi1p0haP+AJ9IZpcBxUmHZkJ1Ri+X+hS/UR7exYi3fxW1G31HdLkQ+fx48fz3dGsW/pH0bjYvb29qXDhwuTm5iZYfhIUz2lJoyLUeOoBuhsQHt+/zaMkeYg/3do/jZoWbUiLnqTSsZ2NUH54QBeuPOcu368og7zp6p0AStLUz1L++OMPPidXSEjiknw/GhU76x9lg3VYbqWfDk7sK8YupoepPmtR0LMVE2h5DhB7dmDdunVUvnx5ev/+vWD5cTQm9k+fPlHFihXpr7/+Eiw/G2H0/OmbL+5OSijePKVnCZ6TSKq4uLiQpaUl+fr6Chb1oJGxMSydTMuWLdG8eXM+84SISGpw7i2fR/f8+fOoXLmyYFUPWS521opm/aMWFhZ8H7CISGqwbNVdu3blRzDWr19fsKqPLBU72zQbvchqdpYaUkwAJpIa9+/f54cB7N69G61atRKs6iVL+9knTpzIJwFjaSBFoYukxosXL2Bvb4/169dnmdAZWSZ25pu7u7un+OKriEgC7EUdVqOzIQDMhclKskTsW7duxebNm/mnoyYmwpsKIiJJCA4O5oU+evRo/ilpVqN2n/3o0aMYNWoULl26hPLlywtWEZFviYiI4F0WTfbQqVXsLIRBt27d+HEvderUEawiIt/Ckji3b98eZcqUwd9//y1Ysx61iZ3lnrezs4OLiwvfpy4ikhJsBGPPnj35Dos9e/bwIbw1hVr25Ovry7emWYg6UegiaTFy5EiEh4fzw7s1KXTGD++NxUlnYS9mzZrFh5IWEUkNNqTb29sbhw4d0kpg2h8SO7tCWSiDPn368I1SEZHUYLE6We8ceyMtb968glWzfLfPzhoZzHVhPS4bNmwQrCIiyWHd0EuWLOGHA7AMGNriu8TO4l+z16TYqizCrqZ9L5Gcw4EDB/hIAKwrumzZsoJVO3yX2NlDgGfPnvEj1MSkACKpwUKMs3AXZ8+eRbVq1QSr9sh0lTx//nw+/vWRI0dEoYukyvXr19G/f3++MZodhM7DavaMsn79ev7tkcDAQMEiIpKchw8f8q9ecg1SwZI9yLAbw3yvHj168H+LIxgzT8JpVmu0s2wKe3DERrqyh0fZiQyLnR1ABhcVSQE23LlUqVIYO3asYPl5YRd0dqwQv7vrUSRzsB6JkiVLYvz48YJFRNOIfYYagtV2Yr2iXUSxawhR7NpHFLuGYGJnD+NEtIcodg3BnjKLNbt2EcWuIUQ3RvuIYtcQoti1jyh2DSGKXfuIYtcQoti1jyh2DSGKXfuIYtcQoti1jyh2DcHELvaza5dkY2NYAFI26J79OOqEZTtj49/Ft5pEUoINNGR5cPX19QWLemDy7ty5M9q2bZtc7JMmTeKDHbEY2eqERX1iL2azwVAiIkl5/Pgx/0bTuHHjBIt6WL16NR9JeubMmclf3pg4cSItX75cmFMfLFmrl5eXMCci8i2nT58mOzs7YU59zJgxg5ycnPi/RZ9CJNcgil0k1yCKXSTXIIpdJNcgil0k1yCKXSTXIIpdJNcgiv0nQRUbC4Xwd2rExsQKf+VOcqbYlX646rIW80b3RrtG1hi+P1j4IotQvsOl1b+ii0MntLGujgadZuDwK6XwZTr8yLoZIhR3nZ3gtO8+IgRLyqjw8fIaTHM6hBcxgimXkTPFrlMSjfsMRl35JZy9JUP52sbCF1lBCM5NaoW247cgxG4lRlV6D6+jyzDhz4tIXzM/sm4GUAXjwpyhWC/tgxn96yHtvIRSWNhNwLSGNzG2z2rcjxLMuYic68aowvHuXSiklVvCrlTWRZ9SvduHFVueQE4S6OsboXrbXmjbshtG9qwFmbBMavzIuumjhJ+zI8Y964QFfUpDV7CmjRRmLX7HvEq7MWDqKQTnskGYOVfs4Zdw/kYcSjW3Q+WM/dLfhSrAH29i2Vg5AhuhW6bXapw4txfTm5mle/J+ZN30UL3fhymz7qLx8G4omqmNGaDer8NQfM9kLL4mF2y5g+wndmUgbu5dBafF6+H6OASfvS7jdrjwXSLknufgEVEIzezqItXA2aog/Od1gw+fnNZ0476fsMK3hF/fhgWbPPCJrwFV8Dn5JxbsfZhuQ5CR3rrhjw7gD8ce6NZ3IPoNGINlrk+QcJjKV2ex9o85mD17NmbPXY3TAQoEXVuP0Z3s0GmGK96qFPDe9BeOKZqgtc232cNjPnjj4v7N2HcjRLCoEHxrD1atPQkfYefSwnZoWfUFtq88iA+5qHbPZmL/DLcxthjomgfN7GtDvrsHavbahY/J1ByLO+ev4EP+pmjdOI1U8QpfXN6zC7t2pT3tdr0jrPAtUkNjmJkYIt5JkkCW1xTm+fS5v9InrXUjPOahdZNeWPrcGk47t8GpsQ8Wd7FG0wmn8JETn06pFmghPY0/nbiG5+KNcDv+Bxzsx2DD0XNwXeuMSxGPcPDwfagq1kDNRIevfLoNY/oNxIAhI9Hf8U/cjFUh8OR4NLftiwkTZ2LHowS1F0X1KoURem4/TsRfjbkDfuxjIrQ6xFd+goYWM6J2mwJJyc9foKmjNtN7fiYRike0oK6M8jlsow+CKauI85pF1WScHwI9ar1BKFcGSXHduHv0ex0DzouXUc25dymOMyl9V1BTPZBE14omXI5mS1HQ5nakz/wfaT6ybO9Eni8vkFOnutRg6G56+XodtdKXkmmffyl+6cQoKXBfbyoqs6KJrvtpyrCVdP2ND9308KagL4VX0MtljUgmLUJDjiXfgjbIfUN8dcuhYlklzi2ehAP+SkC/IaYv7IXCSUqpeuuOC490ULdVS5gLtpSJROArX/j4+KQ5+b7O4q7LRCju7cfBB3JOxRKYFSzE31qlpibIx1X5pPDBsX9vcvctdi8QIEKNro5oWMYWMw974dqWPiju7wN/pQTG3HrJ7zJSFLLvjpYmPtg9/yrqLRgHa4vSqGdTGWZfzqMOzM1NIVUFw9cniHN0cgfZS+w6Vhi5ZBKqf3DBiF5OuBGpD1MzI+HLr3y+4I7bqhqws7NI+wBi72PvwnmYNy/taf6aU8IKWU+szwv4896EBPoGhvHl19UV3B0l3rx6xYv9CzpFULbst12rFB0FOXe/SPUVR6PGaNHAEGGmFdA4aU0hIDM0gJ6EEBUZzm49uYLsJXYOI5t52L2iHQxuLsbIpV7f/vA8kbhy3hPRVi1hVy6dLkc9G4zb4sxnU05r2vFnH2GFrEfKCdxAqI51dITTHxf3peFqYJgnyY8iQ9LXMiVG+ZCX24Y8KpXO8nBv+AXnRdxdT3im1p+uUnE1ugR58uZL4e7wc5JtxC6/dhLnWesMuqjguB5/tDWE96FDuJegggRibuLclc8obtsK1bKwyzGr0KvTALXyMHmxWjWSdyFU4ZGIZtWrRB/V69VCeq8c65Yuh1IyFcI+hyBOsH0lHFfXn0PJcb1QJtwLHvdYdSFHRGTip7YqhAZz60rMULqsefar8bKIbHKcCjw6uQp7PCPjZ6XFUL9OKRgUKAjzJNVOlMe/cHuthxr1a6crCnWgUimgFO7z7O33zJDSulKLnhjXtwxkEhX8X77ka3SFvx8CVBLoWnTDmL6lOZdGhdg4heBeKBCb5PYmNW+MxtyVHvPal/PdmUWFz7f2w9n9FfxdnbDfrD/6t2uCevlf4crF/+B/fB12c+2Eryjg++oNKG89NKqXezIeZhOxh+Lhy3e4v340Zq/7B85rpmLqiUKYtcQRZRM8ldDHOLVjMYaP2wlfZSweHl4NlxuBfM2YVchfnMWmv08hfiiLAvcPrsROj9ecZ50+qa9rinbL92Fl1zL44DIHM9ZvxNx5e/C+TCcsO7gW3TgfW+nnjvVHHsbvR+kHtw3rcSFe1fFwbZtu3RtA9vw+HvBuSiyurhuLIW1rweFEHUweUgG6Rs3wS0sT3FvWFZN8W6Bfw0Qp1FVBuHf/DfK37okOBXJLvc7B98kkQitdj8oQevniPSkpnHyvnyJXN0/yCctMJ19OREHBzzzolKsruXk8o2CFYM4oQUdoUEkLGnQ0nJ9VfnhAF648pxB+Lh5lkDddvRNAMcJ8AsoPO6hToeo03TN7dDsyck/Xo9QYZcoW5m4zRihl3Qa/tG2I0vl+9hpHB6ZWNmjzyy9oa2MF03Ta2skw+wWLlrXE7XVb8R9X6UsLVoNt43JI3G8jNauMRrWKJXnCrMDTbc54O2A1ZjZM44HcT0guuoepB0X4R7x/9w7v0pref0R45tz770CKot3XYYudB+atuguhtZMukbf+h6Uv+mKnUzPkE2y5BVHsmSIWtxc2g2WxYiiW1mRpg7nXkneaqh8j1J/sjD/KumOVsxc+p9mAUeHtlW1Y71UdCzcMQcVcmIlfFHum0EOtGe7w8fODX1qTz2XMs9aUmgxQrtMkzOpXG8Zp/ppSFLEZhCmj7GCZA7ts1YEo9kyiZ1IEliVKoERak2VRmGi65pTqpPtjShMeYuVSRLGL5BpEsYvkGkSxi+QaRLGL5BpEsYvkGkSxi+QaRLGL5BpEsYvkGlJMIHbo0CF069ZNsKiHPXv2oEWLFihcuLBgERH5CnvyfOfOHT6znTphb6KNHTuWTyCWTOwXL16El5eXMCeiLlxdXWFqaoomTZoIFhFN0bRpU1hbWycXu0jWMGHCBD4t5vjx4wWLiKYRfXYNIaZz1z6i2DWEKHbtI4pdQ4hi1z6i2DUEE7uKhfIV0Rqi2DUEi94l1uzaRRS7hhDdGO0jil1DiGLXPqLYNYQodu0jil1DiA1U7SOKXUOIDVTtI4pdQ4hujPZJNjbG398fb9++FeZE1MXmzZv52n3o0KGCRURTsPAmLHhVikN8V65cyY8SUyevXr1CkSJFYGCQu+ILimSMyMhIBAcHw9LSUrCohxs3bsDJyYkf4sturd+g1QRiIrmW3JdATEQkCxHFLpJrEMUukmsQxS6SaxDFLpJrEMUukmsQxS6SaxDFLvINqthYpJcOKjZGEyl01E/OFLvSD1dd1mLe6N5o18gaw/cHC19kEcp3uLT6V3Rx6IQ21tXRoNMMHI5PcKpWYv87ikXjh8Nx2DAMG7EQx9+mNkpShYBjU9Gmdk20HHcQr5RKvL60DjNHOWIYt67jmL9xK9N6DMVdZyc47buPCMGSMip8vLwG05wO4UWMYMoh5Eyx65RE4z6DUVd+CWdvyVC+duKEiOomBOcmtULb8VsQYrcSoyq9h9fRZZjw50Wo+7fWs2qHlvpXsWPrVmzdfgR3U80IFoYzm9bi7N37cN+4Acc/SGDZrC+qBO7HNrauszt8MpOtTxWMC3OGYr20D2b0rwcTwZwyUljYTcC0hjcxts9q3OeTDucMcq4bowrHu3ehkFZuCbtSmU0imnFU7/ZhxZYnkJME+vpGqN62F9q27IaRPWtBJiyjPnRgYmqMJBnsUyA/Okyahz52rdBrznQ+KzZgCDMzo+/4QZXwc3bEuGedsKBPaWQst5gUZi1+x7xKuzFg6ikE55Bh+jlX7OGXcP5GHEo1t0PlLMz+pgrwx5tYNlaOwN69KNNrNU6c24vpzcy0ePKkKGg7DbvOnMWe2XYoklAQSfqXSVJU7/dhyqy7aDy8G4pm6oAMUO/XYSi+ZzIWX5MLtuxN9hO7MhA3966C0+L1cH0cgs9el3E7XPguEXLPc/CIKIRmdnWTZHBWH+HXt2HBJg984msuFXxO/okFex+m24CD6gOubJqPObNnYzY3zZm3Agfuv8W9vUswd45gm7sYmy8HQBF4DTsWz+WW+QsnfL5tB1DkY+yfNwD2LVqhy7jN8OLdGiUCLm/Gorlz4rfzxz48SqdA8pfH8efo/ujbrwe6D3OC68sEcSrgvekvHFM0QWubb0ejxnzwxsX9m7HvRohgUSH41h6sWnvyi4skLWyHllVfYPvKg/iQA2r3bCb2z3AbY4uBrnnQzL425Lt7oGavXfiYTM2xuHP+Cj7kb4rWjdMYMhx7C1smjsFvv/2W5jT2j8PCCt8iNTSGmYkh51wwJJDlNYV5Pv303QxpIdjYWeD+psX88NKlbtGoUrUYarZvgNADS7GIsy3e4YdS1hbQLWwNW4MbuKzXCnZlErljKj/snjwH56MNEO59AYdXj0Ln8a5cC0IHFo0dUPDWSn47TssP4XEajdGo28vRvmEXbFb1xdqdy2H3djm6NesHZ9bAVjzCwcP3oapYAzUTnUbl020Y028gBgwZif6Of+JmrAqBJ8ejuW1fTJg4EzsSri5pUVSvUhih5/bjRHyNkL3hxz4mQqtDfOUnaGgxI2q3KZCU/PwFmjpqM73nZxKheEQL6soon8M2+iCYsoo4r1lUTcb5MNCj1huEcmUIOV2ZYEWch0USfRta+lTB2T7Qjo7GnPfPbU+3HI27JOdsIXRwxEDaHMC2rKCnixsQ1xbgvi9Do8+Gc7ZI2tMtH7+ObvkJdCWGM1E0uQ4qxIaskiR/D9oXyWxyOjnMgrjL5atN4U2LbQxJolOafnVn+1LQ44X1ue3rUvnxlyn67TpqpS8l0z7/cltMipIC9/WmojIrmui6n6YMW0nX3/jQTQ9vCvpyEhT0clkjkkmL0JBjybeQGXLfEF/dcqhYVolziyfhgD9X8+g3xPSFvcC3vxKheuuOC490ULdVS5gLtpSJROArX/j4+KQ5+b7Oiq5LfTTo3wNVZBJQrBf2ujxC7Lvj8MzTCg0MOekqfHFkzxVEBbvhVFwLOHxxvAUkpihSlFW3Uugb6PF3E1V4KEITKtAM+OfK/w7jsFc0p35dhD89hWPHTsDrDetDUuDVdQ88f+EDf6UExqYmKdytpChk3x0tTXywe/5V1FswDtYWpVHPpjLMvhRVB+bmppCqguHrE8Q5Otmb7CV2HSuMXDIJ1T+4YEQvJ9yI1IepmZHw5Vc+X3DHbVUN2HGuQpoHEHsfexfOw7x5aU/z15wSVlAvutV7o3stGSQUh4f7/8Gxg9dh5rgMg2yNOHEp8eaYC/49cBZo1QGF0jiQL7pWKtJvLyQizscXr1kzgMLw8f1nhISEQmIzCVudnbF9RhuYy6Mg5+5Z7HXBFDFqjBYNDBFmWgGNk9Y4AjJDA+hJCFGR4ez2l63JXmLnMLKZh90r2sHg5mKMXOrFeedJicSV856ItmoJu3LpdDnq2WDcFmc++0Ja044/+wgrqBmdCujVswEMWEX+fCfG/2sOh0Yl0bmPHUy4M698dxjT1gBt2pkJK6gXiY4EUv6WEAWDch3Rv3//L1Nfh1ookD8f8nLfy6NS6SwP94ZfcF7E3fWEZ2r96SoVV6NLkCdvvvTbMlom24hdfu0kzn9kN0JdVHBcjz/aGsL70CHcS1qVxdzEuSufUdy2FaplYZejetBB6e490TgPJwNlKMyadEU9PSkK/tIX7Qtyp14VBtR1QJu0n+J8N7JKVWHFuVEgroJwdQN/enlU+OD/GrGly6GUTIWwzyGIE775Sjiurj+HkuN6oUy4FzzusWpHjojIxD1GKoQGc+tKzFC6rHn2qzmTkE3Kp8Cjk6uwxzMyflZaDPXrlIJBgYIwT1JdRHn8C7fXeqhRvzbnFWc9KpUCSuH+rFBkxomIR2rRFb1bGkMqq4FuvWrEP7QxboM+DhbQ0SkK+x6tkI9fMh6lIkFMBCX/pwqKOGW8i8DtP6EEijjhL2Uc4vgviS8f/6dgk1p2w4C2TIQqBB2dhdFbHyKCq4mDPFZiyYE3kJg3RmOuxoh57cv57mxFFT7f2g9n91fwd3XCfjPuLtCuCerlf4UrF/+D//F12P0gcZ+6Ar6v3oDy1kOjelnVAaw+sonYQ/Hw5TvcXz8as9f9A+c1UzH1RCHMWuKIsgmeSuhjnNqxGMPH7YSvMhYPD6+Gy41A7ufJOuQvzmLT36cQPwxGgfsHV2Knx2vO284E0sLo2Ls1ijbogZ4VE25FedGiXxeULeWAXi3yCjY2NsYVG48/j9++8iVO7ziNhze2YpdnvD+sCr+OPVs9cO/8auy8EsIfO8m9sGflKXieX4vtl4L45eJtZ/GKLDBg3XZMaFgQuopXODiiFgoXKocOOwtjxG8NkZdrI3Xr3gCy5/fxgHdTYnF13VgMaVsLDifqYPKQCtA1aoZfWprg3rKumOTbAv0afi0vVEG4d/8N8rfuiQ4Fsnu9zsH3ySRCK12PyhB6+eI9KSmcfK+fIlc3T/IJy3gnX7Yn8gXdevjp225LxRvufPgR65DMcpQR9MrrHB07dpauvwz5thxBR2hQSQsadJR1c3KLfnhAF648pxB+Lh5lkDddvRNAfK9nIpQfdlCnQtVpuuePdTsyck/Xo9QYZcoW5m4zRihl3Qa/tG2I0vlyQE2RUfKURZ2qSXxaHQvUrVtCeGCVxUjzomTdlujQoRWsy3AulWDmMfsFi5a1xO11W/Efd0uRFqwG28blkHhondSsMhrVKpbkSbUCT7c54+2A1ZjZMGfEAvqJFKUZFOEf8f7dO7xLa3r/EeGZd++1hBRFu6/DFjsPzFt1F0KrKV0ib/0PS1/0xU6nZt+0ObIzotgzRSxuL2wGy2LF+HBqqU6WNph7LSe94GCE+pOd8UdZd6xy9kKqI4t5VHh7ZRvWe1XHwg1DUDH7t0u/IIo9U+ih1gx3+Pj58RmZU518LmOedQ5SAY8BynWahFn9asM4TVVIUcRmEKaMsoNltu/6/RZR7JlEz6QILEuU4INlpjpZFoVJTtN6AlKddEUh1cmZshHFLpJrEMUukmsQxa4hduzYgZMnTwpzItpAFLuGuHfvHp4/fy7MiWgDUewaQkwzo31EsWsIUezaRxS7hhDFrn1EsWsIMQ+q9kkxgRjLmDd27FjBoh5YWLbJkyejYsWKgiV3sWHDBhgbG6NPnyx6KyqHc/PmTezdu5dPXqdO/vjjD9ja2vIJxJKJfd26dXw3mbqz2oWHh8PQ0BC6ujnsGbOa8PX1hUwmQ/HixQWLSGLi4uIQExMDI6Pk7xz/CHK5HOPGjUO/fv2Si10ka5g+fTpMTU0xbdo0wSKiaUSfXUOIPrv2EcWuIVi4CvEmql1EsWsIsetR+4hi1xCi2LWPKHYNIfrs2idZb8yaNWuwbds2vptQneT2rsePHz/ynwULFuQ/Rb4lq7oeo6OjMWHCBAwYMCDlh0pv3rzh+ybVyZAhQzBlyhRUqlRJsIiIfOXGjRvYs2cPVq1aJVjUw4IFC9C0aVP+oRLzI79BqyGrRXItuS9ktYhIFiKKXSTXIIpdJNcgil0k1yCKXSTXIIpdJNcgil0k1yCKXSTXIIpdRD2oYhGbXpju2JgUEsJpjuwvdqUfrrqsxbzRvdGukTWG78+KnKWJUL7DpdW/ootDJ7Sxro4GnWbgcHyemYzD0q8cWY1Zox35d28dJ27D/ayM1x77H44uGo/hjsO4/Y3AwuNvU02/owo4hqltaqNmy3E4yB2X8vUlrJs5Co5cOYc5jsHftzIvx9C7znBy2of7EYIhFVQfL2PNNCccesFysWoB/jlqIrLncIEIch1clHT0GtGfz7MyMctnOjuuMhlI9Kj56pd0eGBBkkKHSo46Ryw/dOb4TDsc8vCZqaUFB9CRH8/EkiYx16dSJV2WUklGdRY8ojjBnpTP2zqQoYQtp0ct1rzlU8583tWZ8jObJD/1iE+XnUGUFOQ+m7oO+4d8UtthEpRB52lauy70v3vf7kccLpCAKhzv3oVCWrkl7EplXWIW1bt9WLHlCeScRPX1jVC9bS+0bdkNI3vWgkxYJuPoIW9ezcWt1jExhXEGEpHm7zAJ8/rYoVWvOZjejaX2AQzNzGD0HUpQ+jnDcdwzdFrQB6UzOJhVatYCv8+rhN0DpuJUsGaHPOcMsYdfwvkbcSjV3A6Vs3CEsCrAH29i2SBQYrlsUabXapw4txfTm5n9NI0baUFbTNt1Bmf3zIbdlxTykswn7FW9x74ps3C38XB0K5q5s2NQ71cMK74HkxdfQ+JEk1mNdgeXKwNx88AenPXVQ7WOfdAk8gF8KjZFnSRJeuSe5+ARUQjt7OomSWKVGBWC/ruNF8FCztDUkBiiaJUaKJlk2HT49W1Yts0Dn/jKRgWfk39igclAzOxVLYMnSYnA69uxcu1RPJOURo0W3VEytYor/BEOrPofDtyPgqGBDvLX6IbRIx1QKZ8KH65swYYz/vG5TSU6MK3eBb3LP4HzIW9EqDijRIq8JVphwOAK8N+1DW4v5TBtMBBjy8Vvmoci8Xj/PCzfcQVvDaqh54zfMbSeKSjgMrbtPAf/KBVIoo9qPWegZ9U0jk7+EsdXr8C++2GIiTVAjf4zMMmhLFiQFYX3Jvx1TIEme2z4+S/EfID3tYvwDCyJ7j2twfIZq4JvYZ/zdRg7jIR9GW5/0sKwa1kVYxatxMEpDdEvrVz2akSLFdZnuI2xxUDXPGhmXxvy3T1Qs9cufEym5ljcOX8FH/I3RevGacWyUcD38h7s2rUr7Wm3K+58TN7glBoaw8zEUMheJ4EsrynM8+lnsMZT4ePJsWjefDj+ulsRU/9ehd+Kn8aOSymk44rwwLzWTdBr6XNYO+3ENqfG8FncBdZNJ+DUR6CQjR0s7m/CYicnOC11Q3SVqihWsz0ahB7A0kWcbfEO+JWyhoVuYVjbGuDGZT20sisjbJyhgt/uyZhzPhoG4d64cHg1RnUeD9cQlqCvMRwK3sJKth2n5Tj0OI3GaNRtLG/fEF02q9B37U4st3uL5d2aoZ/zK+6yVuDRwcO4r6qIGjUT/SbKp9g2ph8GDhiCkf0d8efNWKgCT2J8c1v0nTARM3c8EhaUomj1Kigceg77T3xKtTGtdnjPPREaa6DKT9DQYkbUblNgfF5O+QWaOmozvU+a/lTxiBbUlVE+h230QTBlFXFes6iaLL7x1nqDUK6MEHeLZteQcZ6+LpUffzk+X6jyHf3dNm+SBmoc3fu9DtcABslqzqW7rFGn9KUVTfW4xqEuWU24TGwx+ZUJZMUamxJ9sln6lM+V+mFHR+J8cq5sulRu3CW+wRxycAQN3BzAl1PxdDE14MuuS2VGnyWW1TRyTzfKx9bRLU8TrsRnMY12HURcRfpNY1R+chhZ6CS2Kch7sQ3XkNWh0r+68/tSPF5I9bnt65YfT5ej39K6VvokNe1D/6bQ8FYG7qPeRWVkNdGV9k8ZRiuvvyGfmx7kHfT1jCpeLqNGMikVGXKMP+afu4GqWw4VyypxbvEkHGC5xPUbYvrCXiicpESqt+648EgHdVu1hLlgS43IwFfw9fGBT1qT72sEq7nnS/H0BNwexzG1oJCFRfzdQZofZqZJmrWKe9h/8AHXAObuHWYFwd+9paYw4RQJUsDn2L/gKkPoN+iPHlVkkFAsvPa64FHsOxz3zINWDQy5PXB3sCN7cCUqGG6n4tDCoUiS27MEpkWK8q6FVN8AeuzWxDXwQ0MT6s8M+OfK/3D4sBei2eUb/hSnjh3DCa83YKdN8eo6PJ6/gA/3m0mMubKnsDFpIXt0b2kCn93zcbXeAoyztkDpejaobPa1pDrm5jCVqhDs64MgDVXt2hO7jhVGLpmE6h9cMKKXE25E6sPULPn7h58vuOO2qgbs7CzSKWws7u9diHnz5qU9zV+DU36Z7DdPB4XvK7zhN8m5PzJOpLw1BWJ98MI/vsNdwgnRkD8gXegKHUzKN6/winkWutXRu3styCSEuIf78c+xg7hu5ohlg2xhxG1c+eYYXP49gLNohQ5p+buShJJwjkdm+vnjfOD7mh0QIezje3wOCUGoxAaTtjrDefsMtDGXI4pdsVJpKr+JERq3aADDMFNUaBzf45MMmSEMuCuRoiIRzm1KE6StnyzGyGYedq9oB4ObizFyqVcKT9ciceW8J6KtWsKuXHpdjnqwGbcFzv/8g3/Smnb8iT5W6u2+lHBq1eV1RYiOjOT+TwUpJ3DOh+HRSchKF4e4BCEaGCIPb9RBhV490YAtq3iOneP/hblDI5Ts3Ad2JtwCync4PG0N0KYdzPgV1QzXMJZIWTlViDIoh479+6N/wtTXAbUK5Ee+vNz38ihExa+RhHB4+wUjb9xdeHqmvATbNuvxkuTJC3Zj0wRaEbv82kmc/8juXbqo4Lgef7Q1hPehQ7iXtPaJuYlzVz6juG0rVNNuv1GayCpVQXle7Uq89nnJyVcgqer16qBBrTx8zc9qtEh2CjgXIzKaLSiBfvV6qKXPFuTkXro7ejZmyyoRatYEXevpQVrwF/RtX5D70VQIQ104tGF9HVmArBKqWrE7FCHyiivc+N8qHtUHf7yOLY1ypWRQhX1GyJeD/Ur41fU4V3IcepUJh5fHPb4Sk0dEckfyFVVoMLeuBGaly8JcQyrUgti5lvzJVdjjKfRUSIuhfp1SMChQEOZJrvAoj3/h9loPNerXhqCBLEWlUkApCFSRifu+tEQX9Gttyosw0G0n/g1QIvz2Ovx9Lix+gbg47qg5pBboOa4vysgkUPm/xEtmVPjDL0DF3R0s0G1MX5ROuOlwy3bt3RLGUhlqdOuFGvzFbow2fRxgwd0Vitr3QKvEXbRKruzCn6SM/0uliBOOR/HVjeFs8X8quWLFHyxxXyr4PwWb1BLdBrTlRagKOopZo7fiYQRXEwd5YOWSA3gjMUfjxtWgG/Mavqy9xaH6fAv7nd3xyt8VTvvNuLtAOzSplx+vrlzEf/7HsW4311bhl4yHd/0oL+o1qpdGd7Ka4Zupicj63phPtK13Varbuh/NWutMO1dPoNZ12tCSa2HxCzJCvMlt+yLqW9WIJBIZle28gHZff5/x3pHvIPr5GVozpAbl4Xs8pGTebBJtu+rP94RkBIXfQRpRw5ikEgnJ8plTKW79Ce1MuPJz8/krUOffT5IPv7FwurWmG1nlL0TNJq6jDdNaUtH8VtT5r+sUwm8pEUF7qIdFE/rzWaJSyC/ROKuyNOpsom6QmGd0aIw1cR4OX3bjBhPo+IPrtLpjCeKuHc6mS2W6rqWrd8/R0o4lBZsOFW+/gNw8ztGyzqWJuzF9sZ3x5fanDKBjkxpSQdZw4JrKOnnMqXQDR3J+Gj9wQvFsGTXJY0Ld98T/bqyXp7COjExqDKf9fvHl/bS3JxXSzU9W3VbTnQjeJKCkt+taUR7zrrQrMP5X1URvjObFrgyhly+YcMPJ9/opcnXzJJ+wrJSxBon7RN6XjtOx8w/ofYyC3j64SndefKLoFA5PEfyMPE65csfvQc+CU7ukIunFrYf06Zv1FfSGO4+CnrIYJUW88qJzx47R2esvKeSbcgTRkUElyWLQUb6bk5Qf6MGFK/Q88RWrDCLvq3coIL7X8yvcsjs6FaLq0z35bkfGzyl2kZ8G5dv9NKBaa1qV+M6TAeK8l1CL+pPpYqKbuTgQTNsowvHx/Tu8e5fW9B4fwzPu3/9MSIt2x7otdvCYtwp3U3hYnCKRt/C/pS/Qd6cTmiUZFpLViGJPg9jbC9HMshiKFUtrsoTN3GtafSlBmxjVnwznP8rCfZUzvD6n/XRI9fYKtq33QvWFGzCkouZGhCYgij0N9GrNgLuPH/z80pp8cHmeteZ6FLIhBuU6YdKsfqhtnLacpEVsMGjKKNhZaqcfWRR7WuiZoIhlCZQokdZkiaImuVnqCUihk56apAkP0rSDKHaRXIModpFcgyh2kVyDKHaRXIModpFcgyh2kVyDKHaRXEOKCcRWrlyJunXrChb14O/vj0KFCsHAIK2XpkVyK1FRUfj8+TMsLCwEi3q4desWnJyc+ARiycT++vVrvH//XpgTURdbtmyBUqnEiBEjBIuIpihevDiKFi2aXOwiWcOiRYsQERHBf4poB9Fn1xA6Ojp8zS6iPUSxawiW2Tszr/qJqB9R7BpCrNm1jyh2DSHW7NpHFLuGEGt27SOKXUOINbv2EcWuIcSaXfuIYtcQYs2ufUSxawixZtc+otg1hFizax9R7BpCrNm1T7YeG+Pr64szZ84Iczmbe/fu4dq1axg1apRgEckKYmNj0bZtW5QvX16wfCXbil0ul6NBgwYoWbIkihQpIlhzLsyFYTW7vr4m4hHnTjZt2sR/Mu2kdJ6zrdhZDRgSEoI9e/YIFhGR1Ll9+zbs7e3h6emJsmXLCtZvyZY++/79+3Hu3LkvV6qISFqwSrFHjx7YsGFDqkJnZLua/eXLl7CxscGpU6dQq1YtwSoikjqdO3fm3d1Vq1YJlpTJVjU7a1z07NkTc+fOFYUukiHYK6QsmvKyZcsES+pkq5p97NixePv2LQ4ePChYMkbs0xPYfOgyvH2DwGdj55BIpJDq6iGvWTGUq2mL9u1tUDJP/HciPwesd4vV6jdv3uTjbqYLE3t24NChQ1SmTBni/C/BkkkUL2h5EwOS6FhSv13PKDAsgsLePyePfQuos1VeMijehpwuB2dpqhoRzfHp0yfiBE7Hjx8XLOmTLcTu6+tLhQoVIu4KFSzfQzQdH1KEpLpWX7I5J6B4sYbsTKSkW/ZXOvdNbh+RnIhKpaJ27drR1KlTBUvG0LrPHhcXh169emH69OmoV6+eYP0eJPxTypRSauqU7ogOtXSh8LuAs49ya9qAn4fFixfzL6+zEBmZQes+++TJk/H8+XMcPXpUsHwvMTg1vCw6bM+LsRceYmXjRDHTFV6YWasRljyrjYUPPDCzfADct+zCpTdRUJIEuvkrwn5YT5hfW4N/rgdBwdl08ligad8hsPLdgX8uvEYUy7EokUAq1UUes1Ko1boj7CqZfNPCj/S9jKPHPfAyVB/FrTugm50VEjKpKH1OYLXzdQTF52D8CrdNmXFVdOD2X4dPaxoJ38tHcdzjJUL1i8O6QzfYWXFbUfrj/CZnXHorh4qVz6gC7B3tIT29GSeehPNllhoWRdNe7SA5szv95fqOQKtSOlyD5z1uux3HZe8AhESz1JjsOHWQp1QrzBzahC9iduLSpUvo3bs3Hw+GZT7JFHz9riWOHTtGJUuWpODgYMHyI8jJzdGCdJK6MYpAujy/OZlLdcmixy7yS3Da457REhsZSc06k7OQnpCU72h7RxOSyqxp4eOEbcTR86U2JNMpSUP3PSbvGydp4/A6ZGxoRY5HAoU2gJy8tw4lh0GLyOXUWTq4rDdVNspDVoP3fpPVLuT6LGrYdC5dffGSXr68T3+20CNpkd60LyEdntybtg51oEGLXOjU2YO0rHdlMspjRYP3+sWnqIx7QosasjJ3pV0fEsr8gVy6F+DKbENLnsXF2zK6XMxDWmVXiGSmNjRpjwc9uLmafjGVklGb9eSvkWx8mSMwMJAsLCzozJkzgiVzaE3sr1+/psKFC5Onp6dg+VEEsUv0qHBVW2r7iwO1b9GAKlsYkY7UiCr02UyPEqUOZWkXd3fJS7plxtDFBF2HXKGZdfKSNG8X2h0p2Dgid3ehvLplaewlYcHwXdTZSEr5uu/ltsJp68EialxvOt2ITxHKEUknh3Fl0SlFo89/MXLiukiTh62jAF5/n2mLvT7pVuHW47UXRw8WNaZ6029wRyIQeZKGWeiQTqnRFL+ZSHLpypW57NivZaYYujrRinS/KXPGlou7NYuqyaRUaODR+BSN0a40uDBXKQxz+1qGbIJSqaSWLVvS3LlzBUvm0YrPrlAoeD99woQJaNiwoWBVEzql0GfDabi5cq7A2fM4e9QZTj1L4e3e0bBrNw/uiVKTSzgXgrkRvJ+veAnn6ZvxrlhBSBNsCXwzr0LgeXfcl+dBtdqVoccydh/Yh1uh3tgzazLvlk2ePBduKhu0t68FkwghyzWDohCrZ4z8ic46K0P8/h/hwL5bCPXeg1n8NrhprhtUNu1hX8sEEWEJ5Y4vyTflYyQtcwaWk1pWRkVTIPTJfTyPEYyMZCtpn/nz5/Of8+bN4z+/C0H0GoVrjPKtadaqVh+puDEMpR9t7mDGXdm6VHbMBSHRLKv9jPja75I8iNzn9KfpbgF0hdV+Rl3JJXHN7tKVjKTGVLVDf+rRsjKZ6xtTlYE76Cm/m2j6t48p6bdcS28FjyE1lO830YjJ7kKtGV+zy6rOoJusZo/+l/qY6lPLtW/T6B6NL7PUuDp1HDKUhg6NnzrV5Fyvb8qc0eWU9OHqX9SvjgUVr9+Hpsx3pIb5uZrdMXvV7MxtYe4Lc2N+BI3X7KdPn8bu3bvh7OzM12oaQVoCHTvUhYyrhf1v30TAN8PKFXixZSpcLGdiftsCqVdq0gJoMWUL9p3xhMe+ETBxdUTT9qvwIBbQ09eD8v4lXPwsLJuAKgIhoV93Jr/1AIpKVbhypIQe9PWUuH/pIpJvJgSJNsMVxRYTN2zh40du2bIek1sUSvFRePrLSVGwkSNGty2C4Af3EFa8HApoJ5FdqrCHjAMHDuQ1wwLj/ggaFTsr+KBBg7Br1y4UKFBAsGoCBQICAjkHRAqT0mVRSEcwc6jeHcWu9/3w59CKGUvvKDVGhY7zMNE+Pz5d2o4D3lLUsq4Fw6Aj+H3qv/D/IkoV3h6Zj78uRwvzUbjmHo5qtuYpn3S9WrCuZYigI79j6r/++LqZtzgy/y982YyaCXGfDccVT1BhwmYs71MJBVK+ErVCgrv722+/oVmzZoL1+9GY2NlY7j59+uDXX39F06ZNBas6USA8LJKTWFIUeO++AGPXPYTSrBmmTf1F6A6MhTxGARi3wcRZtjDlzwQhOkoOrjUERaINxcpjuK0kQv4E956GA0alUbaoLiz6TMfIajI8394b9a274dfp0zG+Xwu03VgQXdoY8aso/fZid1hL9GDdffEW7pxwe5RHQc72JbVAn+kjUU32HNt714d1t18xffp49GvRFhsLdkH8ZuLLTEoFvvZgJirzF1vGllN9PIFpI9fDr8ZU/D3XBkYqOaJiiBNZHLe09pk1axaMjIwwY8YMwfKDCO5MlsNa0a1ateJb1eom5qkbbVw0lOqaSAkSGZmWqkb1mramDg721KJ+RSpZuhrZ9p5Fex4IyfIV/nRhw6/UyFxKEt3S5LDQjXziPtMtl9lkX0KHIC1EzcZtIHe/GHpzcSP92sicpJK8VK55bxo8uDd1aFCFqtoOpKXnAuK7BNkmA86SU8+6ZJlfj/TyWVDdnkvownt2rCF0c/tEsi9fgCq1G/zFfx46qBPVNOP2LytDDnNc6M5nfisUcNaJeta1pPx6epTPoi71XHKB+M0kLjO3Tse5LuT1KeibMjcdu57cfXwztNzp8wdoasuipGvchJbcjyHlOw/aOsGWCuuAdIq1pElbPFiBtAbrlmbDAdiwAHWhEbGfP3+eihUrRu/fvxcsuQjFc1rSqAg1nnqA7gaEk9DDzaEkeYg/3do/jZoWbUiLnmTDjm0t4efnp+Zu6XiyXOxM4KwlzQSfK+HEvmLsYnr4VeVJUNCzFRNouSh2ntjYWLK2tqYVK1YIFvWRpcMFVCoV2rRpw/elL1iwQLDmNsLx4lkYSlewQKJ28TcoA57hZf4KYKMCcjvjx48HV7Pj8OHDgkV9ZKnYFy5cyL9ex9Xq/CAtEZG0OHToEKZMmcK/T2piwg8UUitZJvbLly/z3UbfNWBHJNeR8DrmyZMnUadOHcGqXrKk65FrQaNv377Yvn27KHSRdImJiUH37t351zGzSugMtdfsbHPt27dHjRo1+HHHIiLpMXLkSD5CwN69ewVL1qD2mp29+BoWFoY//vhDsIiIpI6LiwsuXLiAzZs3C5asQ601OwtQ06VLF3h5ecHS0lKwioikzNOnT/mn6awTo3r16oI161BbzR4cHMwPB2CDjnK60JV+V+Gydh5G926HRtbDsT9Y+EKtxMDXbQmGtqmHqlXqou2ojbj5OflgB3UQ6+OKeb2aokblmmgxZDU8g7NmP5mBZbRmfjrLC6sJofOwml0dODg40MSJE4W5n4AIVxpcVIf0Gv1Jz9X+vEdBvs59qFZNO+rWuzM1LZuPpBIpFeq07eubVOri81ma23c4LdywkZwG1iYTqQ5ZDjtB4cLX2mLQoEE0YMAAYU4zqEXsK1eu5J96sadfPwvKd39T2zwyqjn3bqJH/Goi7gnt3XCM3iRcRCFXaEoNfZIY2NGGd+pVu/zxdboTLGwz7g7Nri4jWZ35aTzRzXq2bdtGVapUocjIRC8NaIAfFjsLf8HCYLBwGD8TIXt7kKmsfPIXQbKEOLozuwbJ9O1oPT/qK4uIu8WJXY8sBruSMCRO4zx48IAKFixIjx8/Fiya44d89tDQUD5c3caNG1GqVCnBmr1RBt7E3lVOWLzeFY9DPsPr8m2EC999RQ7Pcx6IKNQMdnUzNMo9GRnbTwIqREREQVatCZqYZ+4nyfh+QnF37VzsUQ3Aqt/tv0Q90CQs/AXz0//66y9UqlRJsGqOHxL70KFD0aFDBz4EWY7gsxvG2A6Ea55msK8tx+4eNdFr18fkL23E3sH5Kx+Qv2lrNDYQbJkho/tJIOY2XM8p0WPmSFTOzJtC6e5Hhah3j3Bh91KMat0Uvz3phSOem9GthHaGbgwfPpzvfWEPHLWCUMNnmrVr11KdOnUoJkYTt3n1ID8xlIoZtaNNQugM+YWpNGrz+2TvfCoeLaC6snzksO2DYMkcGd1PPHK6t8SOGo47RQkRNTJK+vsJoQdH1tLcIU2phKGEpMZ1aMrZoFTKkbWsX7+eatSoQdHR34R40CjfJfY7d+7wfteLFy8ES85A8WwZNTGUUel+QjwXeTAFJeuWUJL/6uZkYNCcVn9n10jG9sNQ0qczk6h9363Cy9uZIzP7+XDmN6qiJyH9Bovosdp7l9Lm9u3bvF7+++8/waIdMi32sLAwKleuHO3du1ew5CTCyWN2HcorNaaG869TymEfP9HOTvlJz3oRff8Q84zshyjizv9o0OC1dO+7409mbD88yje0urk+SQv0p8MarFxZoNqyZcvS/v37BYv2yLTYe/XqRSNGjBDmciBxT2lj+8KkY1CT5txMoTqNOEwDCsmo6kyvH+tyTGc/0Y+20rixm+j+jwZaTe94vhBJe7vnI1nlaXRdg55nly5d6LfffhPmtEumxP73339r3e/6PqLJ88Q5+hIJzm8TtTeVUZXpN5IJWu7+K5WWlabf3FOLnKIgRao1fsb2E3F/B836/QC9SBCdMpDcj13lPOxEcDtJ/caS8eP5Qsx1mlbZkKrPukma0vpff/1F9erVyzbtugz3xjx8+BCzZ8/Gvn37YGDwPV0UWkTxCCdX7YFnZPystFh91CllgAIFzZPEiYmCx79ueK1XA/Vrp5DVTnELixoVhGGBuph8Kih5JIN096PCZ88l6D36MMJVD+HsNA/z5kyFYwd7rHtT4kt3oOLWIjQqaIgCdSfjVFAKj/bT24/qIzx3rsD/drnjWQgLyhGB2/+bDRfZSKycVC9jIUN+kBs3bmDJkiV8fiw9PU3sMQMIok+TiIgIqlixIv3zzz+CJYfxaRv1rlqXWvebRWudd9LqCa2pTpsldC3Rk5UQbzfavqgvVTWSkERWljov2E3Xkz7gifGk2bVNyczSgop22kF8QIDEpLOfSI95VJ9FQOBOe+JJat6Ndid6iT7GczbVNjUjS4ui1GlHsr2kfzyRx2lYcRlxwueOxYgKFClFdXosovNvNdMyDQoK4gPWHj16VLBkDzIk9v79+9PgwYOFuZyHMuQlvWDCDfel66dcyc3Th8KS6DgzKH3/os6DDyZrEKp3P0ry/aszDT6Y3KnPyH6Un1+Qx8kjdPTUVXr0VnNuJwtp2L59e5o0aZJgyT6kK/bt27dT5cqVNT6OIdui/EBnZgyihdey9nwoP5yhGYMWUhbvRu0sXryYbGxsKC5Oi4NvUiFNsXt7e/P9o+xThCPuMR1e9ift8PyQpQ9m4h4fpmV/7iDPhBZoDuHSpUtUpEgRPhx5diRVsUdFRfEj07Zu3SpYRERSh0XYLV68OJ06dUqwZD9SfVNp2LBh/IuwXKNUsIiIpExCfCBra2s+fEp2JcWuRxYe+OrVq3x6bBGR9GDvG7OIuwkJA7IryWr2Z8+eoWLFivywXY29LiWSY3n8+DEfAoMFNuL8dcGaPUkm9lGjRvHvkdatW1ewiKiD9+/f8w9XzMzMBMvPA0vR2KJFC2Eu+6L2uDEiKcNiGLIXXNiniHb4oZc3RDKOVCplPV/CnIg2EMWuIVj+KFHs2kUUu4YQxa59RLFrCFHs2kcUu4YQxa59RLFrCCZ29qRRRHuIYtcQYm+M9hHFriFEN0b7iGLXEKLYtY8odg0hil37iGLXEGIDVfuIYtcQYgNV+2hlIFhQUBDu3LnDJ3d98+YNAgIC+M+3b9/ykV7Z2Gg2/UzikMvl/GeOC0OiBtiFzvLgymQy5M+fHxYWFvxUvHhxfmID5FiWvHz5sja2sEbEzsY8X7lyBdeuXeOnwMBA/uDYQSY+aPa3kZERf1J0dTMTzlYkO8MkllCBsTDnrGJLmFhFx3Kg3r9/H2XKlOGzobOpWbNmag+DnmViZ7U2y4TG3npitXXz5s35pK7sQCpXrsxf7SIiCcTFxfGCZ5UhS0THMuiVLl2aD2/NcgAULFhQWPIHYGJXJ4cPH6YmTZpQgQIFaNSoUeTh4SF8IyKScbi7ALm5uVG/fv3IxMSEj0XDeQfCt9+H2sTu7u7O51VisSAPHTr0U+VXEtEuLCIdy8PE1fRkb29P9+7dE77JHD8sdq5RSW3btuXDWHNuCx8RSkQkK2ABUtesWUNFixblM+2x8OmZ4Ycc58uXL/PvqjJf/MmTJ+jduzffnywikhWwd3h/++03PH/+HIaGhqhfvz6vuwwjiD7TrF69mgoXLkynT58WLCIimoWFZmQR65jbnBG+S+y7d+/msym8evVKsIiIaAeWwoZVuhnpCMm02O/evctfTQ8fPhQsIvEoKeztGwrOfvE8f3pYr42FhQUFBAQIlpTJVD87eyhQoUIFPsg8y2f5U6L8D8dX78b5p28RruROjUQH+YpVQIveY/FLxfgHXZHPTmDrP2fwX1QRtBo5EZ2s9KF45IRG9eYjeMRZeK9qppGA/yJfWbx4Mc6dO4fz588LlhTgJZ9BmG/UrFkzYe5nJo6eL29KhhIJGTZbQc8T1daKZ+vJvmwpsipqSBLIqMYcId17xB3aNn0Srb78KUsj/IqkjFKpJEtLyzQ9jkz1xmzduhVDhgwR5n5mdGFZozIKSKUoUKk6LL+MXJDjynpnGM2/jievfHDnvDv2T6nJLc2RtxYGL16OMU3MxdF1WoA9kR84cCCv0dTI8O/CHvlfunQJ3bp1Eyw/OboyyLgPmSzRGJ2Qk9h+rRaGdCoMqV4R1GzRGFbayIsukiIDBgzAgQMHhLnkZNhnf/XqFT++xdfXV7D83MRcHIvKrdYDo8/h8Wpb6EOJF/9zwPCwRTgzp0Z8bZ4YVQienNqP63k6YqBtYZD/eWxyvoS3chWI8/uNKtjD0V6K05tP4Em4grNJYVi0KfqOaIVSfHb1SPhePorjHi8Rql8c1h26wY5dSUp/uG/ZhUtvoqDkHCfd/BVhP7QdJKc24/jTcN6mk8cCTXu1geTsnq/L5S2Aynb90a2uWa6507A2ZZ48eRAbGytYksA7MxmAEzmfFCq3IL8whsro6FCZMRdITgp6d3Ym2TWfQZdSeGgXeX8fzXYoS3oSGdWed/9Lesa4J4uooUxKZl13fU3j+MGFuheQksxmCT1LWFDuTVuHOtCgRS506uxBWta7MhnlsaLBe/3i00PGPaMlNjKSmnYmZyF1O0tO7NK9AEll1rTwsZB6MdFyO78sl3tgQ1RkMpkwl5wMX/QFChTgx6FHRUUJltyACu+PTESLOuVRud9NtF+9AE1TcFvyVO+B35cORa0k1b1uiVIopieFqUVxGAtnWmpcApZmUugVsURxfnkFHq4cgY0FZ2HjjN5o06orJm9Zjl6mL+E8fSkuxXCL6BaHZRE9SE2Lo4RJwk+WD5bFuVpbzwKlSwp9P4mWK/lludwD8zoKFy4szCUnw2eEjTO3tbXFwYMHBUtuQIoiDk7Yuag3KsdcwMxe43D8fcqv1kmM88MopZESvC35F1+GVSge4cC+Wwj13oNZkydjMpvmukFl0x72tUwQERa/P355bkq8JX4TyWzJl8stsCwxaXWJZ+ryHzp0aJqt3Z8SqSEs2/wBl7VdYfZsI4Y6bsVLlkc3KVJpKgJT4dPFlRg1bBifumfY6OVw/5DoglH44KU/cfuYij+XL8dyflqNrfuPwvWQExwKZr6GVgVdxIrh/dGjaw8MHLsA268EIBUv9qeBvd+7Y8cOXqOpkakz2aFDB/7NEpblOnchRYne6/H30HL4fHIahq95nAnxSFHAdiI2bNnCJ3nYsn4yWhRKfNr1oK+nxP1LF/FZsCSgighBaEoXVjpIzW0xadM/2LttHuzCXTCyZUMMPRAofPtzsmjRIv6BZ5UqVQRLcjIldvaq3KFDhzBmzBg8ePBAsP6sUHz66YS+Kqk57Jdtwriq0bg4dyiWeKmp7aJXC9a1DBF05HdM/dcfX7Steosj8//C5Whh/juQGldBr7E9UAkBOH38umD9+Th58iT+/vtv7Nq1S7CkTKbvkSzP0po1a9C5c+efuhtSERSMUE7pYZ+DuSakQL5mmL9pKmqrbmJR//FwfZfIHYmJ4ZeLi0tU58fKEaMgKNnL44IJFI0oOWdTCjapBfpMH4lqsufY3rs+rLv9iunTx6Nfi7Zco7UL2hixhWIhj+GWVynBRjAkoFRy+4+LgTxOMAjLfUUB/+te8FflQaXqFQXbzwXL5TR48GDs378//ZxOQq9Mplm3bh0/2owNwvmpUDynE/+bS31rm7CuKpKa1KZ+c1fR8adf+gnpzh8NyUgioTxl7Gi00366c+8krRhah/JLJaRfoTstPPSQQv0v0IZfG5E5Z5OV6UhzXbzoU9AtcpltTyV0uO0Wakpj17uTH9+3qKCAs07Us64l5dfTo3wWdannkgvEMraTwp8ubPiVGplLSSIrQU36DCXOL+WmvmRbSo8k0gLU+Ld15O7j+3W5PGWoafcB1K9zY6pSqSH1nH+CXiUa8vCzwLmF/KDEo0ePCpa0+W6xM65evconev3999/F1/A0jpLkn/3p7rE/qZtVCRrsGi3Yf37Cw8OJa+xT5cqV6enTp4I1fTLtxiSmUaNG8PLy4ieWTpL5TGLUK00hhb6JJWp2mIJtK/uiOP8U9ueGJaH+3//+h/Lly/M6u3nzJt8ozTCC6H+Yy5cvEyd+qlatGnH+E/++oIiIOmA1+aZNm/gn+A4ODt/9LoXaxJ7AsWPHqHnz5mRubk6Ojo506dIl8SVskUwTFxfHa6lXr158KA0mck9PT+Hb7yPLgiSxaE979uzhXZvPnz/zEZ4SgiRxtT8fDk1EJAE2eIuFREwIksRG2FpZWaFfv37o0aOHWpIlZ5nYE/Pff/99E/7u9evXqFWrVprh79gk8nPAJMYifrFRiSmFv/Px8QHnmvD+d0L4u6ZNm8LS0lLYgnrQiNiTEhISwl/F/v7+Xw444TMyMpI/KezkaKFoIlkAe7GCPZBkFRgLXppQsSVUcqzSq127Nj88NyvRithFRLTBD3U9iojkJESxi+QSgP8DXckXuZZzBikAAAAASUVORK5CYII=;" parent="1" vertex="1">
          <mxGeometry x="180" y="640" width="187" height="346" as="geometry" />
        </mxCell>
        <mxCell id="TjbBh-4RcYpVoHgZe_X--6" value="" style="edgeStyle=orthogonalEdgeStyle;rounded=0;orthogonalLoop=1;jettySize=auto;html=1;" parent="1" source="TjbBh-4RcYpVoHgZe_X--1" target="TjbBh-4RcYpVoHgZe_X--5" edge="1">
          <mxGeometry relative="1" as="geometry" />
        </mxCell>
        <mxCell id="TjbBh-4RcYpVoHgZe_X--11" style="edgeStyle=orthogonalEdgeStyle;rounded=0;orthogonalLoop=1;jettySize=auto;html=1;entryX=1;entryY=0.5;entryDx=0;entryDy=0;entryPerimeter=0;" parent="1" source="TjbBh-4RcYpVoHgZe_X--1" target="TjbBh-4RcYpVoHgZe_X--7" edge="1">
          <mxGeometry relative="1" as="geometry">
            <mxPoint x="140" y="450" as="targetPoint" />
            <Array as="points">
              <mxPoint x="141" y="280" />
              <mxPoint x="141" y="440" />
            </Array>
          </mxGeometry>
        </mxCell>
        <mxCell id="TjbBh-4RcYpVoHgZe_X--1" value="&lt;font style=&quot;font-size: 15px;&quot;&gt;&amp;nbsp;k=1; k&amp;lt;=7; k++&lt;/font&gt;" style="shape=hexagon;perimeter=hexagonPerimeter2;whiteSpace=wrap;html=1;fixedSize=1;" parent="1" vertex="1">
          <mxGeometry y="240" width="120" height="80" as="geometry" />
        </mxCell>
        <mxCell id="TjbBh-4RcYpVoHgZe_X--10" style="edgeStyle=orthogonalEdgeStyle;rounded=0;orthogonalLoop=1;jettySize=auto;html=1;entryX=0;entryY=0.5;entryDx=0;entryDy=0;" parent="1" source="TjbBh-4RcYpVoHgZe_X--5" target="TjbBh-4RcYpVoHgZe_X--1" edge="1">
          <mxGeometry relative="1" as="geometry">
            <mxPoint x="-20.000000000000227" y="280.0000000000001" as="targetPoint" />
            <Array as="points">
              <mxPoint x="-20" y="370" />
              <mxPoint x="-20" y="280" />
            </Array>
          </mxGeometry>
        </mxCell>
        <mxCell id="TjbBh-4RcYpVoHgZe_X--5" value="S +=k*x*cos(x+k)&lt;br&gt;/(log(2+x)+2*k);" style="rounded=0;whiteSpace=wrap;html=1;" parent="1" vertex="1">
          <mxGeometry y="340" width="120" height="60" as="geometry" />
        </mxCell>
        <mxCell id="TjbBh-4RcYpVoHgZe_X--7" value="Вихiд" style="strokeWidth=2;html=1;shape=mxgraph.flowchart.terminator;whiteSpace=wrap;" parent="1" vertex="1">
          <mxGeometry y="420" width="110" height="50" as="geometry" />
        </mxCell>
        <mxCell id="TjbBh-4RcYpVoHgZe_X--15" value="" style="edgeStyle=orthogonalEdgeStyle;rounded=0;orthogonalLoop=1;jettySize=auto;html=1;" parent="1" source="TjbBh-4RcYpVoHgZe_X--12" target="TjbBh-4RcYpVoHgZe_X--14" edge="1">
          <mxGeometry relative="1" as="geometry" />
        </mxCell>
        <mxCell id="TjbBh-4RcYpVoHgZe_X--12" value="k &amp;lt;= 7" style="rhombus;whiteSpace=wrap;html=1;" parent="1" vertex="1">
          <mxGeometry x="214" y="260" width="80" height="80" as="geometry" />
        </mxCell>
        <mxCell id="TjbBh-4RcYpVoHgZe_X--17" value="" style="edgeStyle=orthogonalEdgeStyle;rounded=0;orthogonalLoop=1;jettySize=auto;html=1;" parent="1" source="TjbBh-4RcYpVoHgZe_X--14" target="TjbBh-4RcYpVoHgZe_X--16" edge="1">
          <mxGeometry relative="1" as="geometry" />
        </mxCell>
        <mxCell id="TjbBh-4RcYpVoHgZe_X--14" value="S +=k*x*cos(x+k)&lt;br style=&quot;border-color: var(--border-color);&quot;&gt;/(log(2+x)+2*k);" style="rounded=0;whiteSpace=wrap;html=1;" parent="1" vertex="1">
          <mxGeometry x="194" y="360" width="120" height="60" as="geometry" />
        </mxCell>
        <mxCell id="TjbBh-4RcYpVoHgZe_X--19" style="edgeStyle=orthogonalEdgeStyle;rounded=0;orthogonalLoop=1;jettySize=auto;html=1;entryX=0;entryY=0.5;entryDx=0;entryDy=0;" parent="1" source="TjbBh-4RcYpVoHgZe_X--16" target="TjbBh-4RcYpVoHgZe_X--12" edge="1">
          <mxGeometry relative="1" as="geometry">
            <mxPoint x="170" y="300.0000000000001" as="targetPoint" />
            <Array as="points">
              <mxPoint x="171" y="480" />
              <mxPoint x="171" y="300" />
            </Array>
          </mxGeometry>
        </mxCell>
        <mxCell id="TjbBh-4RcYpVoHgZe_X--16" value="k++" style="rounded=0;whiteSpace=wrap;html=1;" parent="1" vertex="1">
          <mxGeometry x="194" y="450" width="120" height="60" as="geometry" />
        </mxCell>
        <mxCell id="TjbBh-4RcYpVoHgZe_X--20" value="Вихiд" style="strokeWidth=2;html=1;shape=mxgraph.flowchart.terminator;whiteSpace=wrap;" parent="1" vertex="1">
          <mxGeometry x="200" y="536" width="104" height="54" as="geometry" />
        </mxCell>
        <mxCell id="TjbBh-4RcYpVoHgZe_X--22" value="&lt;font style=&quot;font-size: 14px;&quot;&gt;нi&lt;/font&gt;" style="text;html=1;align=center;verticalAlign=middle;resizable=0;points=[];autosize=1;strokeColor=none;fillColor=none;" parent="1" vertex="1">
          <mxGeometry x="294" y="265" width="30" height="30" as="geometry" />
        </mxCell>
        <mxCell id="TjbBh-4RcYpVoHgZe_X--23" value="&lt;font style=&quot;font-size: 14px;&quot;&gt;так&lt;/font&gt;" style="text;html=1;align=center;verticalAlign=middle;resizable=0;points=[];autosize=1;strokeColor=none;fillColor=none;" parent="1" vertex="1">
          <mxGeometry x="264" y="330" width="40" height="30" as="geometry" />
        </mxCell>
        <mxCell id="TjbBh-4RcYpVoHgZe_X--24" value="" style="edgeStyle=orthogonalEdgeStyle;rounded=0;orthogonalLoop=1;jettySize=auto;html=1;" parent="1" source="TjbBh-4RcYpVoHgZe_X--25" target="TjbBh-4RcYpVoHgZe_X--26" edge="1">
          <mxGeometry relative="1" as="geometry" />
        </mxCell>
        <mxCell id="TjbBh-4RcYpVoHgZe_X--25" value="S +=k*x*cos(x+k)&lt;br style=&quot;border-color: var(--border-color);&quot;&gt;/(log(2+x)+2*k);" style="rounded=0;whiteSpace=wrap;html=1;" parent="1" vertex="1">
          <mxGeometry x="420" y="265" width="120" height="60" as="geometry" />
        </mxCell>
        <mxCell id="TjbBh-4RcYpVoHgZe_X--29" value="" style="edgeStyle=orthogonalEdgeStyle;rounded=0;orthogonalLoop=1;jettySize=auto;html=1;" parent="1" source="TjbBh-4RcYpVoHgZe_X--26" target="TjbBh-4RcYpVoHgZe_X--28" edge="1">
          <mxGeometry relative="1" as="geometry" />
        </mxCell>
        <mxCell id="TjbBh-4RcYpVoHgZe_X--26" value="k++" style="rounded=0;whiteSpace=wrap;html=1;" parent="1" vertex="1">
          <mxGeometry x="420" y="360" width="120" height="60" as="geometry" />
        </mxCell>
        <mxCell id="TjbBh-4RcYpVoHgZe_X--30" style="edgeStyle=orthogonalEdgeStyle;rounded=0;orthogonalLoop=1;jettySize=auto;html=1;" parent="1" source="TjbBh-4RcYpVoHgZe_X--28" edge="1">
          <mxGeometry relative="1" as="geometry">
            <mxPoint x="480" y="250" as="targetPoint" />
            <Array as="points">
              <mxPoint x="401" y="490" />
              <mxPoint x="401" y="250" />
            </Array>
          </mxGeometry>
        </mxCell>
        <mxCell id="TjbBh-4RcYpVoHgZe_X--28" value="k &amp;lt;= 7" style="rhombus;whiteSpace=wrap;html=1;" parent="1" vertex="1">
          <mxGeometry x="440" y="450" width="80" height="80" as="geometry" />
        </mxCell>
        <mxCell id="TjbBh-4RcYpVoHgZe_X--31" value="Вихiд" style="strokeWidth=2;html=1;shape=mxgraph.flowchart.terminator;whiteSpace=wrap;" parent="1" vertex="1">
          <mxGeometry x="425" y="558" width="110" height="55" as="geometry" />
        </mxCell>
        <mxCell id="TjbBh-4RcYpVoHgZe_X--32" style="edgeStyle=orthogonalEdgeStyle;rounded=0;orthogonalLoop=1;jettySize=auto;html=1;entryX=0.5;entryY=0;entryDx=0;entryDy=0;entryPerimeter=0;" parent="1" source="TjbBh-4RcYpVoHgZe_X--28" target="TjbBh-4RcYpVoHgZe_X--31" edge="1">
          <mxGeometry relative="1" as="geometry" />
        </mxCell>
        <mxCell id="TjbBh-4RcYpVoHgZe_X--33" value="так" style="text;html=1;align=center;verticalAlign=middle;resizable=0;points=[];autosize=1;strokeColor=none;fillColor=none;" parent="1" vertex="1">
          <mxGeometry x="410" y="448" width="40" height="30" as="geometry" />
        </mxCell>
        <mxCell id="TjbBh-4RcYpVoHgZe_X--34" value="нi" style="text;html=1;align=center;verticalAlign=middle;resizable=0;points=[];autosize=1;strokeColor=none;fillColor=none;" parent="1" vertex="1">
          <mxGeometry x="495" y="528" width="30" height="30" as="geometry" />
        </mxCell>
        <mxCell id="TjbBh-4RcYpVoHgZe_X--45" value="" style="edgeStyle=orthogonalEdgeStyle;rounded=0;orthogonalLoop=1;jettySize=auto;html=1;" parent="1" source="TjbBh-4RcYpVoHgZe_X--35" target="TjbBh-4RcYpVoHgZe_X--38" edge="1">
          <mxGeometry relative="1" as="geometry" />
        </mxCell>
        <mxCell id="TjbBh-4RcYpVoHgZe_X--35" value="f_for" style="strokeWidth=2;html=1;shape=mxgraph.flowchart.terminator;whiteSpace=wrap;" parent="1" vertex="1">
          <mxGeometry x="5" y="70" width="110" height="50" as="geometry" />
        </mxCell>
        <mxCell id="TjbBh-4RcYpVoHgZe_X--44" value="" style="edgeStyle=orthogonalEdgeStyle;rounded=0;orthogonalLoop=1;jettySize=auto;html=1;" parent="1" source="TjbBh-4RcYpVoHgZe_X--36" target="TjbBh-4RcYpVoHgZe_X--39" edge="1">
          <mxGeometry relative="1" as="geometry" />
        </mxCell>
        <mxCell id="TjbBh-4RcYpVoHgZe_X--36" value="f_while" style="strokeWidth=2;html=1;shape=mxgraph.flowchart.terminator;whiteSpace=wrap;" parent="1" vertex="1">
          <mxGeometry x="197" y="70" width="110" height="50" as="geometry" />
        </mxCell>
        <mxCell id="TjbBh-4RcYpVoHgZe_X--41" value="" style="edgeStyle=orthogonalEdgeStyle;rounded=0;orthogonalLoop=1;jettySize=auto;html=1;" parent="1" source="TjbBh-4RcYpVoHgZe_X--37" target="TjbBh-4RcYpVoHgZe_X--40" edge="1">
          <mxGeometry relative="1" as="geometry" />
        </mxCell>
        <mxCell id="TjbBh-4RcYpVoHgZe_X--37" value="f_dowhile" style="strokeWidth=2;html=1;shape=mxgraph.flowchart.terminator;whiteSpace=wrap;" parent="1" vertex="1">
          <mxGeometry x="425" y="70" width="110" height="50" as="geometry" />
        </mxCell>
        <mxCell id="TjbBh-4RcYpVoHgZe_X--46" value="" style="edgeStyle=orthogonalEdgeStyle;rounded=0;orthogonalLoop=1;jettySize=auto;html=1;" parent="1" source="TjbBh-4RcYpVoHgZe_X--38" target="TjbBh-4RcYpVoHgZe_X--1" edge="1">
          <mxGeometry relative="1" as="geometry" />
        </mxCell>
        <mxCell id="TjbBh-4RcYpVoHgZe_X--38" value="S=0" style="rounded=0;whiteSpace=wrap;html=1;" parent="1" vertex="1">
          <mxGeometry y="150" width="120" height="60" as="geometry" />
        </mxCell>
        <mxCell id="TjbBh-4RcYpVoHgZe_X--43" value="" style="edgeStyle=orthogonalEdgeStyle;rounded=0;orthogonalLoop=1;jettySize=auto;html=1;" parent="1" source="TjbBh-4RcYpVoHgZe_X--39" target="TjbBh-4RcYpVoHgZe_X--12" edge="1">
          <mxGeometry relative="1" as="geometry" />
        </mxCell>
        <mxCell id="TjbBh-4RcYpVoHgZe_X--39" value="S=0; k=1" style="rounded=0;whiteSpace=wrap;html=1;" parent="1" vertex="1">
          <mxGeometry x="194" y="150" width="120" height="60" as="geometry" />
        </mxCell>
        <mxCell id="TjbBh-4RcYpVoHgZe_X--42" value="" style="edgeStyle=orthogonalEdgeStyle;rounded=0;orthogonalLoop=1;jettySize=auto;html=1;" parent="1" source="TjbBh-4RcYpVoHgZe_X--40" target="TjbBh-4RcYpVoHgZe_X--25" edge="1">
          <mxGeometry relative="1" as="geometry" />
        </mxCell>
        <mxCell id="TjbBh-4RcYpVoHgZe_X--40" value="S=0; k=1" style="rounded=0;whiteSpace=wrap;html=1;" parent="1" vertex="1">
          <mxGeometry x="420" y="140" width="120" height="60" as="geometry" />
        </mxCell>
        <mxCell id="TjbBh-4RcYpVoHgZe_X--51" value="" style="endArrow=classic;startArrow=classic;html=1;rounded=0;exitX=0.995;exitY=0.638;exitDx=0;exitDy=0;exitPerimeter=0;entryX=1;entryY=0.5;entryDx=0;entryDy=0;entryPerimeter=0;" parent="1" source="WpXwGcvxJ_HcZTfZ3stz-1" target="TjbBh-4RcYpVoHgZe_X--37" edge="1">
          <mxGeometry width="50" height="50" relative="1" as="geometry">
            <mxPoint x="420" y="870" as="sourcePoint" />
            <mxPoint x="600" y="90" as="targetPoint" />
            <Array as="points">
              <mxPoint x="610" y="861" />
              <mxPoint x="610" y="95" />
            </Array>
          </mxGeometry>
        </mxCell>
      </root>
    </mxGraphModel>
  </diagram>
</mxfile>
